<svg xmlns="http://www.w3.org/2000/svg" width="1100" height="520" viewBox="0 0 1100 520"><rect width="100%" height="100%" fill="white"/><style>text{font-family:sans-serif}.box{fill:#dbe9fb;stroke:#2f6fb5;stroke-width:2}.mux{fill:#efe0f4;stroke:#7b4397;stroke-width:2}.title{font-size:22px;font-weight:bold}.label{font-size:16px}</style><text x="550" y="35" text-anchor="middle" class="title">Contract-guided module-preserving fusion</text><text x="275" y="75" text-anchor="middle" class="title">Dedicated separate baseline</text><rect x="50" y="130" width="190" height="80" class="box"/><text x="145" y="165" text-anchor="middle" class="label">Ibex ALU adder</text><text x="145" y="190" text-anchor="middle" class="label">{ALU operands, private}</text><rect x="310" y="130" width="190" height="80" class="box"/><text x="405" y="165" text-anchor="middle" class="label">Independent client</text><text x="405" y="190" text-anchor="middle" class="label">dedicated adder</text><line x1="240" y1="170" x2="310" y2="170" stroke="#555" stroke-width="3"/><text x="550" y="75" text-anchor="middle" class="title">Fused generated wrapper</text><rect x="610" y="120" width="190" height="80" class="mux"/><text x="705" y="155" text-anchor="middle" class="label">client_select_i</text><text x="705" y="180" text-anchor="middle" class="label">selector / mux path</text><rect x="860" y="120" width="190" height="80" class="box"/><text x="955" y="155" text-anchor="middle" class="label">ibex_alu</text><text x="955" y="180" text-anchor="middle" class="label">internal 33-bit adder</text><line x1="800" y1="160" x2="860" y2="160" stroke="#555" stroke-width="3"/><path d="M560 300 L705 220 L860 300" fill="none" stroke="#7b4397" stroke-width="3"/><text x="550" y="335" text-anchor="middle" class="label">ALU operands ─┐</text><text x="550" y="365" text-anchor="middle" class="label">client ops ───┘ → selector → Ibex internal adder → selected result</text><text x="550" y="450" text-anchor="middle" class="label">Simultaneous ALU/client use is not preserved.</text></svg>