<?xml version="1.0" encoding="UTF-8" standalone="no"?>
<!DOCTYPE svg PUBLIC "-//W3C//DTD SVG 1.1//EN"
 "http://www.w3.org/Graphics/SVG/1.1/DTD/svg11.dtd">
<!-- Generated by graphviz version 2.43.20190912.0211 (20190912.0211)
 -->
<!-- Title: ibex_alu_add_client_fused_directed_client_path_rtlil Pages: 1 -->
<svg width="966pt" height="462pt"
 viewBox="0.00 0.00 965.70 462.00" xmlns="http://www.w3.org/2000/svg" xmlns:xlink="http://www.w3.org/1999/xlink">
<g id="graph0" class="graph" transform="scale(1 1) rotate(0) translate(4 458)">
<title>ibex_alu_add_client_fused_directed_client_path_rtlil</title>
<polygon fill="white" stroke="transparent" points="-4,4 -4,-458 961.7,-458 961.7,4 -4,4"/>
<text text-anchor="middle" x="478.85" y="-437.2" font-family="Helvetica,sans-Serif" font-size="16.00">Whole&#45;Ibex after directed client&#45;to&#45;result RTLIL dataflow slice</text>
<g id="clust1" class="cluster">
<title>cluster_legend</title>
<polygon fill="white" stroke="#cccccc" points="40.9,-292 40.9,-420 140.9,-420 140.9,-292 40.9,-292"/>
<text text-anchor="middle" x="90.9" y="-408" font-family="Helvetica,sans-Serif" font-size="10.00">key</text>
</g>
<!-- port_client_operand_a_i -->
<g id="node1" class="node">
<title>port_client_operand_a_i</title>
<polygon fill="#ffffff" stroke="#333333" stroke-width="1.2" points="181.7,-264.55 90.9,-281.45 0.1,-264.55 0.19,-237.22 181.61,-237.22 181.7,-264.55"/>
<text text-anchor="middle" x="90.9" y="-260" font-family="Helvetica,sans-Serif" font-size="10.00">client_operand_a_i</text>
<text text-anchor="middle" x="90.9" y="-249" font-family="Helvetica,sans-Serif" font-size="10.00">[32]</text>
</g>
<!-- _procmux_159 -->
<g id="node6" class="node">
<title>_procmux_159</title>
<polygon fill="#efe0f4" stroke="#7b4397" stroke-width="1.2" points="340.8,-269 286.8,-269 286.8,-233 340.8,-233 340.8,-269"/>
<text text-anchor="middle" x="313.8" y="-248.5" font-family="Helvetica,sans-Serif" font-size="10.00">mux[32]</text>
</g>
<!-- port_client_operand_a_i&#45;&gt;_procmux_159 -->
<g id="edge3" class="edge">
<title>port_client_operand_a_i&#45;&gt;_procmux_159</title>
<path fill="none" stroke="#666666" stroke-width="3" d="M181.75,-254.56C216.69,-253.61 254.49,-252.58 280.47,-251.88"/>
<polygon fill="#666666" stroke="#666666" stroke-width="3" points="280.54,-253.98 286.48,-251.71 280.43,-249.78 280.54,-253.98"/>
<text text-anchor="middle" x="209.3" y="-256.6" font-family="Helvetica,sans-Serif" font-size="8.00">32</text>
<text text-anchor="middle" x="273.96" y="-256.37" font-family="Helvetica,sans-Serif" font-size="7.00">B</text>
</g>
<!-- port_client_operand_b_i -->
<g id="node2" class="node">
<title>port_client_operand_b_i</title>
<polygon fill="#ffffff" stroke="#333333" stroke-width="1.2" points="181.7,-197.55 90.9,-214.45 0.1,-197.55 0.19,-170.22 181.61,-170.22 181.7,-197.55"/>
<text text-anchor="middle" x="90.9" y="-193" font-family="Helvetica,sans-Serif" font-size="10.00">client_operand_b_i</text>
<text text-anchor="middle" x="90.9" y="-182" font-family="Helvetica,sans-Serif" font-size="10.00">[32]</text>
</g>
<!-- _procmux_164 -->
<g id="node7" class="node">
<title>_procmux_164</title>
<polygon fill="#efe0f4" stroke="#7b4397" stroke-width="1.2" points="340.8,-211 286.8,-211 286.8,-175 340.8,-175 340.8,-211"/>
<text text-anchor="middle" x="313.8" y="-190.5" font-family="Helvetica,sans-Serif" font-size="10.00">mux[33]</text>
</g>
<!-- port_client_operand_b_i&#45;&gt;_procmux_164 -->
<g id="edge4" class="edge">
<title>port_client_operand_b_i&#45;&gt;_procmux_164</title>
<path fill="none" stroke="#666666" stroke-width="3" d="M181.75,-191.22C216.69,-191.69 254.49,-192.21 280.47,-192.56"/>
<polygon fill="#666666" stroke="#666666" stroke-width="3" points="280.45,-194.66 286.48,-192.64 280.51,-190.46 280.45,-194.66"/>
<text text-anchor="middle" x="209.3" y="-194.6" font-family="Helvetica,sans-Serif" font-size="8.00">32</text>
<text text-anchor="middle" x="273.71" y="-196.79" font-family="Helvetica,sans-Serif" font-size="7.00">B</text>
</g>
<!-- port_client_select_i -->
<g id="node3" class="node">
<title>port_client_select_i</title>
<polygon fill="#ffffff" stroke="#333333" stroke-width="1.2" points="597.28,-77.56 539.8,-90 482.31,-77.56 482.37,-57.44 597.23,-57.44 597.28,-77.56"/>
<text text-anchor="middle" x="539.8" y="-69.5" font-family="Helvetica,sans-Serif" font-size="10.00">client_select_i</text>
</g>
<!-- _procmux_219 -->
<g id="node8" class="node">
<title>_procmux_219</title>
<polygon fill="#efe0f4" stroke="#7b4397" stroke-width="1.2" points="777.3,-90 723.3,-90 723.3,-54 777.3,-54 777.3,-90"/>
<text text-anchor="middle" x="750.3" y="-69.5" font-family="Helvetica,sans-Serif" font-size="10.00">mux[32]</text>
</g>
<!-- port_client_select_i&#45;&gt;_procmux_219 -->
<g id="edge6" class="edge">
<title>port_client_select_i&#45;&gt;_procmux_219</title>
<path fill="none" stroke="#666666" d="M597.5,-72C635.93,-72 685.35,-72 717.17,-72"/>
<polygon fill="#666666" stroke="#666666" points="717.3,-74.1 723.3,-72 717.3,-69.9 717.3,-74.1"/>
<text text-anchor="middle" x="710.61" y="-76.32" font-family="Helvetica,sans-Serif" font-size="7.00">S</text>
</g>
<!-- port_result_o -->
<g id="node4" class="node">
<title>port_result_o</title>
<polygon fill="#333333" stroke="#333333" stroke-width="1.2" points="866.85,-64.45 912.25,-47.55 957.65,-64.45 957.61,-91.78 866.89,-91.78 866.85,-64.45"/>
<text text-anchor="middle" x="912.25" y="-75" font-family="Helvetica,sans-Serif" font-size="10.00" fill="white">result_o</text>
<text text-anchor="middle" x="912.25" y="-64" font-family="Helvetica,sans-Serif" font-size="10.00" fill="white">[32]</text>
</g>
<!-- _flatten_u_owner__add__home_dabinford_research_build_ibex_fusion_module_preserving_fused_v_84_91 -->
<g id="node5" class="node">
<title>_flatten_u_owner__add__home_dabinford_research_build_ibex_fusion_module_preserving_fused_v_84_91</title>
<polygon fill="#dbe9fb" stroke="#2f6fb5" stroke-width="1.2" points="633.8,-179 445.8,-179 445.8,-143 633.8,-143 633.8,-179"/>
<text text-anchor="middle" x="539.8" y="-158.5" font-family="Helvetica,sans-Serif" font-size="10.00">$add (retained shared Ibex) add[34]</text>
</g>
<!-- _flatten_u_owner__add__home_dabinford_research_build_ibex_fusion_module_preserving_fused_v_84_91&#45;&gt;_procmux_219 -->
<g id="edge5" class="edge">
<title>_flatten_u_owner__add__home_dabinford_research_build_ibex_fusion_module_preserving_fused_v_84_91&#45;&gt;_procmux_219</title>
<path fill="none" stroke="#666666" stroke-width="3" d="M582.99,-142.99C622.86,-125.97 681.78,-100.82 717.73,-85.48"/>
<polygon fill="#666666" stroke="#666666" stroke-width="3" points="718.6,-87.39 723.3,-83.1 716.95,-83.52 718.6,-87.39"/>
<text text-anchor="middle" x="661.3" y="-114.6" font-family="Helvetica,sans-Serif" font-size="8.00">32</text>
<text text-anchor="middle" x="713.95" y="-91.92" font-family="Helvetica,sans-Serif" font-size="7.00">B</text>
</g>
<!-- boundary_after_5804aea8c0369c35 -->
<g id="node9" class="node">
<title>boundary_after_5804aea8c0369c35</title>
<polygon fill="#ffffff" stroke="#6b7280" stroke-width="1.2" stroke-dasharray="5,2" points="811.8,-257 688.8,-257 688.8,-221 811.8,-221 811.8,-257"/>
<text text-anchor="middle" x="750.3" y="-242" font-family="Helvetica,sans-Serif" font-size="10.00">other Ibex result paths</text>
<text text-anchor="middle" x="750.3" y="-231" font-family="Helvetica,sans-Serif" font-size="10.00">[32]</text>
</g>
<!-- _flatten_u_owner__add__home_dabinford_research_build_ibex_fusion_module_preserving_fused_v_84_91&#45;&gt;boundary_after_5804aea8c0369c35 -->
<g id="edge8" class="edge">
<title>_flatten_u_owner__add__home_dabinford_research_build_ibex_fusion_module_preserving_fused_v_84_91&#45;&gt;boundary_after_5804aea8c0369c35</title>
<path fill="none" stroke="#666666" stroke-width="3" d="M589.16,-179.09C620.75,-190.91 662.08,-206.37 694.83,-218.62"/>
<polygon fill="#666666" stroke="#666666" stroke-width="3" points="694.49,-220.74 700.84,-220.87 695.96,-216.8 694.49,-220.74"/>
<text text-anchor="middle" x="661.3" y="-209.6" font-family="Helvetica,sans-Serif" font-size="8.00">32</text>
<text text-anchor="middle" x="686.89" y="-220.37" font-family="Helvetica,sans-Serif" font-size="7.00">A</text>
</g>
<!-- boundary_after_85368fa5d6fb2427 -->
<g id="node12" class="node">
<title>boundary_after_85368fa5d6fb2427</title>
<polygon fill="#ffffff" stroke="#6b7280" stroke-width="1.2" stroke-dasharray="5,2" points="811.8,-203 688.8,-203 688.8,-167 811.8,-167 811.8,-203"/>
<text text-anchor="middle" x="750.3" y="-182.5" font-family="Helvetica,sans-Serif" font-size="10.00">other Ibex result paths</text>
</g>
<!-- _flatten_u_owner__add__home_dabinford_research_build_ibex_fusion_module_preserving_fused_v_84_91&#45;&gt;boundary_after_85368fa5d6fb2427 -->
<g id="edge9" class="edge">
<title>_flatten_u_owner__add__home_dabinford_research_build_ibex_fusion_module_preserving_fused_v_84_91&#45;&gt;boundary_after_85368fa5d6fb2427</title>
<path fill="none" stroke="#666666" d="M634.07,-171.74C650.44,-173.62 667.17,-175.55 682.63,-177.33"/>
<polygon fill="#666666" stroke="#666666" points="682.52,-179.43 688.72,-178.03 683,-175.25 682.52,-179.43"/>
<text text-anchor="middle" x="675.44" y="-180.85" font-family="Helvetica,sans-Serif" font-size="7.00">A</text>
</g>
<!-- boundary_after_9acb9f012e0c61c7 -->
<g id="node13" class="node">
<title>boundary_after_9acb9f012e0c61c7</title>
<polygon fill="#ffffff" stroke="#6b7280" stroke-width="1.2" stroke-dasharray="5,2" points="811.8,-149 688.8,-149 688.8,-113 811.8,-113 811.8,-149"/>
<text text-anchor="middle" x="750.3" y="-134" font-family="Helvetica,sans-Serif" font-size="10.00">other Ibex result paths</text>
<text text-anchor="middle" x="750.3" y="-123" font-family="Helvetica,sans-Serif" font-size="10.00">[32]</text>
</g>
<!-- _flatten_u_owner__add__home_dabinford_research_build_ibex_fusion_module_preserving_fused_v_84_91&#45;&gt;boundary_after_9acb9f012e0c61c7 -->
<g id="edge10" class="edge">
<title>_flatten_u_owner__add__home_dabinford_research_build_ibex_fusion_module_preserving_fused_v_84_91&#45;&gt;boundary_after_9acb9f012e0c61c7</title>
<path fill="none" stroke="#666666" stroke-width="3" d="M634.07,-147.58C650.44,-145.22 667.17,-142.82 682.63,-140.59"/>
<polygon fill="#666666" stroke="#666666" stroke-width="3" points="683.08,-142.65 688.72,-139.72 682.48,-138.49 683.08,-142.65"/>
<text text-anchor="middle" x="661.3" y="-147.6" font-family="Helvetica,sans-Serif" font-size="8.00">32</text>
<text text-anchor="middle" x="677" y="-145.78" font-family="Helvetica,sans-Serif" font-size="7.00">B</text>
</g>
<!-- _procmux_159&#45;&gt;_flatten_u_owner__add__home_dabinford_research_build_ibex_fusion_module_preserving_fused_v_84_91 -->
<g id="edge1" class="edge">
<title>_procmux_159&#45;&gt;_flatten_u_owner__add__home_dabinford_research_build_ibex_fusion_module_preserving_fused_v_84_91</title>
<path fill="none" stroke="#666666" stroke-width="3" d="M340.93,-240.5C376.9,-226.05 442.4,-199.73 488.15,-181.35"/>
<polygon fill="#666666" stroke="#666666" stroke-width="3" points="489.12,-183.22 493.91,-179.04 487.56,-179.33 489.12,-183.22"/>
<text text-anchor="middle" x="418.3" y="-214.6" font-family="Helvetica,sans-Serif" font-size="8.00">32</text>
<text text-anchor="middle" x="484.34" y="-187.66" font-family="Helvetica,sans-Serif" font-size="7.00">A</text>
</g>
<!-- _procmux_164&#45;&gt;_flatten_u_owner__add__home_dabinford_research_build_ibex_fusion_module_preserving_fused_v_84_91 -->
<g id="edge2" class="edge">
<title>_procmux_164&#45;&gt;_flatten_u_owner__add__home_dabinford_research_build_ibex_fusion_module_preserving_fused_v_84_91</title>
<path fill="none" stroke="#666666" stroke-width="3" d="M340.93,-189.27C365.32,-185.78 403.27,-180.36 439.44,-175.19"/>
<polygon fill="#666666" stroke="#666666" stroke-width="3" points="440.05,-177.23 445.7,-174.3 439.46,-173.07 440.05,-177.23"/>
<text text-anchor="middle" x="418.3" y="-181.6" font-family="Helvetica,sans-Serif" font-size="8.00">33</text>
<text text-anchor="middle" x="433.97" y="-180.35" font-family="Helvetica,sans-Serif" font-size="7.00">B</text>
</g>
<!-- _procmux_219&#45;&gt;port_result_o -->
<g id="edge7" class="edge">
<title>_procmux_219&#45;&gt;port_result_o</title>
<path fill="none" stroke="#666666" stroke-width="3" d="M777.35,-72C799.82,-72 832.92,-72 860.58,-72"/>
<polygon fill="#666666" stroke="#666666" stroke-width="3" points="860.76,-74.1 866.76,-72 860.76,-69.9 860.76,-74.1"/>
<text text-anchor="middle" x="839.3" y="-74.6" font-family="Helvetica,sans-Serif" font-size="8.00">32</text>
<text text-anchor="middle" x="854.07" y="-76.32" font-family="Helvetica,sans-Serif" font-size="7.00">result_o</text>
</g>
<!-- boundary_after_591658f0582f62e4 -->
<g id="node10" class="node">
<title>boundary_after_591658f0582f62e4</title>
<polygon fill="#ffffff" stroke="#6b7280" stroke-width="1.2" stroke-dasharray="5,2" points="390.8,-157 236.8,-157 236.8,-121 390.8,-121 390.8,-157"/>
<text text-anchor="middle" x="313.8" y="-136.5" font-family="Helvetica,sans-Serif" font-size="10.00">other Ibex ALU inputs/control</text>
</g>
<!-- boundary_after_591658f0582f62e4&#45;&gt;_flatten_u_owner__add__home_dabinford_research_build_ibex_fusion_module_preserving_fused_v_84_91 -->
<g id="edge11" class="edge">
<title>boundary_after_591658f0582f62e4&#45;&gt;_flatten_u_owner__add__home_dabinford_research_build_ibex_fusion_module_preserving_fused_v_84_91</title>
<path fill="none" stroke="#666666" d="M390.95,-146.48C406.65,-148.02 423.4,-149.67 439.78,-151.27"/>
<polygon fill="#666666" stroke="#666666" points="439.62,-153.37 445.79,-151.87 440.03,-149.19 439.62,-153.37"/>
<text text-anchor="middle" x="432.59" y="-154.91" font-family="Helvetica,sans-Serif" font-size="7.00">B</text>
</g>
<!-- boundary_after_5bb44bb17b41e51d -->
<g id="node11" class="node">
<title>boundary_after_5bb44bb17b41e51d</title>
<polygon fill="#ffffff" stroke="#6b7280" stroke-width="1.2" stroke-dasharray="5,2" points="616.8,-36 462.8,-36 462.8,0 616.8,0 616.8,-36"/>
<text text-anchor="middle" x="539.8" y="-21" font-family="Helvetica,sans-Serif" font-size="10.00">other Ibex ALU inputs/control</text>
<text text-anchor="middle" x="539.8" y="-10" font-family="Helvetica,sans-Serif" font-size="10.00">[32]</text>
</g>
<!-- boundary_after_5bb44bb17b41e51d&#45;&gt;_procmux_219 -->
<g id="edge12" class="edge">
<title>boundary_after_5bb44bb17b41e51d&#45;&gt;_procmux_219</title>
<path fill="none" stroke="#666666" stroke-width="3" d="M610.52,-36.06C646.66,-45.42 689.04,-56.39 717.37,-63.73"/>
<polygon fill="#666666" stroke="#666666" stroke-width="3" points="716.86,-65.77 723.2,-65.24 717.92,-61.7 716.86,-65.77"/>
<text text-anchor="middle" x="661.3" y="-52.6" font-family="Helvetica,sans-Serif" font-size="8.00">32</text>
<text text-anchor="middle" x="709.43" y="-66.19" font-family="Helvetica,sans-Serif" font-size="7.00">A</text>
</g>
<!-- boundary_after_e87bf6e5397caf2e -->
<g id="node14" class="node">
<title>boundary_after_e87bf6e5397caf2e</title>
<polygon fill="#ffffff" stroke="#6b7280" stroke-width="1.2" stroke-dasharray="5,2" points="390.8,-103 236.8,-103 236.8,-67 390.8,-67 390.8,-103"/>
<text text-anchor="middle" x="313.8" y="-88" font-family="Helvetica,sans-Serif" font-size="10.00">other Ibex ALU inputs/control</text>
<text text-anchor="middle" x="313.8" y="-77" font-family="Helvetica,sans-Serif" font-size="10.00">[2]</text>
</g>
<!-- boundary_after_e87bf6e5397caf2e&#45;&gt;_flatten_u_owner__add__home_dabinford_research_build_ibex_fusion_module_preserving_fused_v_84_91 -->
<g id="edge13" class="edge">
<title>boundary_after_e87bf6e5397caf2e&#45;&gt;_flatten_u_owner__add__home_dabinford_research_build_ibex_fusion_module_preserving_fused_v_84_91</title>
<path fill="none" stroke="#666666" stroke-width="1.1" d="M367.88,-103.01C401.52,-114.42 445.06,-129.19 479.77,-140.97"/>
<polygon fill="#666666" stroke="#666666" stroke-width="1.1" points="479.35,-143.05 485.71,-142.99 480.7,-139.07 479.35,-143.05"/>
<text text-anchor="middle" x="418.3" y="-123.6" font-family="Helvetica,sans-Serif" font-size="8.00">2</text>
<text text-anchor="middle" x="471.79" y="-142.91" font-family="Helvetica,sans-Serif" font-size="7.00">A</text>
</g>
<!-- legend -->
<g id="node15" class="node">
<title>legend</title>
<polygon fill="white" stroke="transparent" stroke-width="1.2" points="132.9,-392.5 48.9,-392.5 48.9,-299.5 132.9,-299.5 132.9,-392.5"/>
<polygon fill="#dbe9fb" stroke="transparent" points="56.9,-372 56.9,-387 72.9,-387 72.9,-372 56.9,-372"/>
<text text-anchor="start" x="76.9" y="-377" font-family="Helvetica,sans-Serif" font-size="10.00">arith</text>
<polygon fill="#ffffff" stroke="transparent" points="56.9,-355 56.9,-370 72.9,-370 72.9,-355 56.9,-355"/>
<text text-anchor="start" x="76.9" y="-360" font-family="Helvetica,sans-Serif" font-size="10.00">boundary</text>
<polygon fill="#efe0f4" stroke="transparent" points="56.9,-338 56.9,-353 72.9,-353 72.9,-338 56.9,-338"/>
<text text-anchor="start" x="76.9" y="-343" font-family="Helvetica,sans-Serif" font-size="10.00">mux</text>
<polygon fill="#ffffff" stroke="transparent" points="56.9,-321 56.9,-336 72.9,-336 72.9,-321 56.9,-321"/>
<text text-anchor="start" x="76.9" y="-326" font-family="Helvetica,sans-Serif" font-size="10.00">port_in</text>
<polygon fill="#333333" stroke="transparent" points="56.9,-304 56.9,-319 72.9,-319 72.9,-304 56.9,-304"/>
<text text-anchor="start" x="76.9" y="-309" font-family="Helvetica,sans-Serif" font-size="10.00">port_out</text>
</g>
</g>
</svg>
